<?xml version="1.0" encoding="UTF-8"?> <svg xmlns="http://www.w3.org/2000/svg" xmlns:xlink="http://www.w3.org/1999/xlink" version="1.1" id="Layer_1" x="0px" y="0px" viewBox="0 0 50 50" style="enable-background:new 0 0 50 50;" xml:space="preserve"> <style type="text/css"> .st0{fill:#11597F;} </style> <path class="st0" d="M-82.7,13.1l2.4-2.4l-2.4-2.4c-0.8-0.8-0.8-2,0-2.7c0.8-0.8,2-0.8,2.7,0l2.4,2.4l2.4-2.4c0.8-0.8,2-0.8,2.8,0 c0.8,0.8,0.8,2,0,2.8l0,0l-2.4,2.4l2.4,2.4c0.8,0.8,0.8,2,0,2.8c-0.8,0.8-2,0.8-2.8,0l-2.4-2.4l-2.4,2.4c-0.8,0.8-2,0.8-2.8,0 C-83.5,15.1-83.5,13.9-82.7,13.1L-82.7,13.1z M-76.7,33.8c0,1.1,0.9,1.9,1.9,1.9c1.1,0,1.9-0.9,1.9-1.9c0-9.3,6.7-17.1,15.9-18.6 l-2,2.4c-0.7,0.8-0.6,2.1,0.2,2.7c0.8,0.7,2.1,0.6,2.7-0.2l4.9-5.9c0.7-0.8,0.6-2-0.2-2.7c0,0-0.1-0.1-0.1-0.1L-57.7,7 c-0.8-0.7-2-0.6-2.7,0.2c-0.7,0.8-0.6,2,0.2,2.7c0.1,0.1,0.2,0.1,0.3,0.2l1.8,1.3C-68.8,13.5-76.7,22.9-76.7,33.8z M-50.8,30.1 c0,4.1-3.3,7.4-7.4,7.4c-4.1,0-7.4-3.3-7.4-7.4c0-4.1,3.3-7.4,7.4-7.4C-54.1,22.7-50.8,26-50.8,30.1z M-54.6,30.1 c0-1.9-1.6-3.5-3.5-3.5c-1.9,0-3.5,1.6-3.5,3.5c0,1.9,1.6,3.5,3.5,3.5C-56.2,33.6-54.6,32-54.6,30.1z M-42.9-0.1v42.6 c0,1.1-0.8,1.9-1.9,2c0,0,0,0,0,0H-89c-1.1,0-1.9-0.9-1.9-1.9V-0.1c0-1.1,0.8-1.9,1.9-2c0,0,0,0,0,0h44.1 C-43.8-2.1-42.9-1.2-42.9-0.1C-42.9-0.1-42.9-0.1-42.9-0.1z M-46.8,1.8H-87v38.8h40.2V1.8z"></path> <g> <path class="st0" d="M-76.5-62.1c0.3,0.3,0.3,0.8,0,1.2c0,0,0,0,0,0c-0.9,0.9-1.5,2.1-1.7,3.4c-0.1,1-0.2,2,0,3 c0,0.5-0.3,0.9-0.7,0.9c0,0,0,0,0,0h-0.1c-0.4,0-0.8-0.3-0.8-0.7c-0.1-1.1-0.1-2.3,0-3.4c0.2-1.7,0.9-3.2,2.1-4.4 C-77.4-62.4-76.9-62.4-76.5-62.1C-76.6-62.1-76.6-62.1-76.5-62.1z M-73-64.5l-0.7,0.2c-0.5,0.1-0.8,0.5-0.7,0.9 c0.1,0.5,0.5,0.8,0.9,0.7c0.1,0,0.1,0,0.2,0l0.6-0.1c0.5-0.1,0.7-0.5,0.7-1C-72.1-64.3-72.5-64.6-73-64.5L-73-64.5z M-62.2-44.1 c-1,0.8-1.8,4.6-1.8,6.6v2.5c0,1.6-1.3,2.8-2.8,2.8h0h-1.9c0.1,0.1,0.2,0.3,0.2,0.5c0,0.5-0.4,0.8-0.8,0.8h-2.7 c-0.5,0-0.8-0.4-0.8-0.8c0-0.2,0.1-0.4,0.2-0.5h-1.9c-1.6,0-2.8-1.3-2.8-2.8l0,0v-2.5c0-2-0.8-5.8-1.8-6.6c-2.3-2-5.9-6.4-5-14.2 c1.4-10.7,13.3-10.9,13.5-10.9s12.1,0.1,13.5,10.9C-56.3-50.5-60-46-62.2-44.1z M-58.9-58c-1.2-9.3-11.4-9.5-11.8-9.5 c-0.4,0-10.6,0.1-11.8,9.5c-0.9,7,2.3,11,4.4,12.7c1.7,1.4,2.3,6.1,2.3,7.9v0.1c2.1,0,4.2-0.2,6.3-0.5c0.5-0.1,0.9,0.2,1,0.7 c0.1,0.5-0.2,0.9-0.7,1c-2.2,0.4-4.4,0.6-6.6,0.6v0.7c0,0.6,0.5,1.2,1.2,1.2c0,0,0,0,0,0h7.9c0.6,0,1.2-0.5,1.2-1.2v0v-2.5 c0-1.3,0.2-2.6,0.5-3.8c-2.5,0.7-5.1,1.2-7.8,1.5H-73c-0.5,0-0.8-0.3-0.9-0.8c0-0.5,0.3-0.8,0.8-0.9c2.9-0.3,5.7-0.9,8.5-1.8 c0.2-0.8,0.7-1.6,1.3-2.2C-61.3-47.1-58-51-58.9-58L-58.9-58z M-47.2-59c-1.3-0.5-2.7-0.9-4.1-1l-1.8-4.4c0.9-1.1,1.6-2.3,2.2-3.6 c0.1-0.3,0-0.6-0.1-0.8l-5.3-5.4c-0.2-0.2-0.6-0.3-0.9-0.2c-1.3,0.5-2.5,1.3-3.6,2.2l-4.3-1.8c-0.1-1.4-0.4-2.8-1-4.1 c-0.1-0.3-0.4-0.5-0.8-0.5h-7.5l0,0c-0.3,0-0.6,0.2-0.8,0.5c-0.5,1.3-0.9,2.7-1,4.1l-4.4,1.8c-1.1-0.9-2.3-1.7-3.6-2.2 c-0.3-0.1-0.7-0.1-0.9,0.2l-5.3,5.3c-0.2,0.2-0.3,0.6-0.2,0.9c0.5,1.3,1.3,2.5,2.2,3.6l-1.8,4.3c-1.4,0.1-2.8,0.4-4.1,1 c-0.3,0.1-0.5,0.4-0.5,0.8v7.5c0,0.3,0.2,0.6,0.5,0.8c1.3,0.6,2.7,0.9,4.1,1l1.7,4.3c-0.9,1.1-1.7,2.3-2.2,3.6 c-0.1,0.3-0.1,0.7,0.2,0.9l5.3,5.3c0.2,0.2,0.6,0.3,0.9,0.2c0,0,3.1-1.3,4.1-2.7c0.2-0.4,0.1-0.9-0.3-1.1c0,0,0,0,0,0 c-0.4-0.2-0.9-0.1-1.1,0.3c0,0,0,0,0,0c-0.8,0.8-1.8,1.5-2.8,1.9l-4.5-4.5c0.4-1,1.1-2,1.9-2.8c0.3-0.2,0.5-0.6,0.3-1l-2.2-5.5 c-0.2-0.4-0.6-0.6-1-0.5c-1.1,0-2.3-0.2-3.3-0.6v-6.4c1-0.4,2.2-0.6,3.3-0.6c0.4,0.1,0.8-0.1,1-0.5l2.3-5.5c0.2-0.4,0-0.8-0.3-1 c-0.8-0.8-1.5-1.7-1.9-2.8l4.5-4.5c1,0.4,2,1.1,2.8,1.9c0.2,0.3,0.6,0.5,1,0.3l5.5-2.2c0.4-0.2,0.6-0.6,0.5-0.9 c0-1.1,0.2-2.3,0.6-3.3h6.4c0.4,1,0.6,2.2,0.6,3.3c-0.1,0.4,0.1,0.8,0.5,1l5.5,2.3c0.4,0.2,0.8,0,1-0.3c0.8-0.8,1.7-1.5,2.8-1.9 l4.5,4.5c-0.4,1-1.1,2-1.9,2.8c-0.3,0.2-0.5,0.6-0.3,1l2.2,5.5c0.2,0.4,0.6,0.6,1,0.5c1.1,0,2.3,0.2,3.3,0.6v6.4 c-1,0.4-2.2,0.6-3.3,0.6c-0.4-0.1-0.8,0.1-1,0.5l-2.3,5.5c-0.2,0.4,0,0.8,0.3,1c0.8,0.8,1.5,1.7,1.9,2.8l-4.5,4.5 c-1-0.4-2-1.1-2.7-1.9c-0.2-0.4-0.7-0.5-1.1-0.3c-0.4,0.2-0.5,0.7-0.3,1.1c0,0,0,0,0,0c0.9,1.5,4,2.8,4,2.8c0.3,0.1,0.6,0,0.9-0.2 l5.3-5.3c0.2-0.2,0.3-0.6,0.2-0.9c-0.5-1.3-1.3-2.5-2.2-3.6l1.8-4.3l0,0c1.4-0.1,2.8-0.4,4.1-1c0.3-0.1,0.5-0.4,0.5-0.8v-7.5 C-46.8-58.5-47-58.8-47.2-59L-47.2-59z"></path> </g> <g> <path class="st0" d="M-5-59.3c0-3.1-2.5-5.6-5.6-5.6s-5.6,2.5-5.6,5.6c0,3.1,2.5,5.6,5.6,5.6C-7.5-53.7-5-56.2-5-59.3 C-5-59.3-5-59.3-5-59.3z M-10.6-55.2c-2.3,0-4.1-1.8-4.1-4.1s1.8-4.1,4.1-4.1c2.3,0,4.1,1.8,4.1,4.1C-6.5-57-8.3-55.2-10.6-55.2z"></path> <path class="st0" d="M18.2-59.3c0-3.1-2.5-5.6-5.6-5.6S7-62.4,7-59.3c0,3.1,2.5,5.6,5.6,5.6C15.7-53.7,18.2-56.2,18.2-59.3 C18.2-59.3,18.2-59.3,18.2-59.3z M12.6-55.2c-2.3,0-4.1-1.8-4.1-4.1s1.8-4.1,4.1-4.1c2.3,0,4.1,1.8,4.1,4.1 C16.7-57,14.9-55.2,12.6-55.2z"></path> <path class="st0" d="M10.9-52.4L10-47c0,0.2,0,0.5,0.2,0.6l1.9,1.9c0.3,0.3,0.8,0.3,1.1,0l1.9-1.8c0.2-0.2,0.3-0.4,0.2-0.6 l-0.8-5.4c-0.5,0.1-1,0.2-1.5,0.2l0.7,5.1l-1.1,1l-1.1-1.1l0.8-5C11.8-52.2,11.3-52.3,10.9-52.4z"></path> <path class="st0" d="M18.3-55c-0.4,0.5-0.8,1-1.3,1.3c2.8,0.1,5,2.4,5,5.2v6.7c0,0.1-0.1,0.2-0.2,0.2H3.4c-0.1,0-0.2-0.1-0.2-0.2 v-6.7c0-2.8,2.2-5.1,5-5.2C7.8-54,7.3-54.5,6.9-55c-3,0.7-5.2,3.4-5.2,6.5v6.7c0,0.9,0.7,1.7,1.7,1.7h18.4c0.9,0,1.7-0.7,1.7-1.7 v-6.7C23.5-51.6,21.3-54.3,18.3-55z"></path> <path class="st0" d="M-12.4-52.4l-0.8,5.4c0,0.2,0,0.5,0.2,0.6l1.9,1.9c0.3,0.3,0.8,0.3,1.1,0l1.9-1.8C-8.1-46.5-8-46.7-8-47 l-0.8-5.4c-0.5,0.1-1,0.2-1.5,0.2l0.7,5.1l-1.1,1l-1.1-1.1l0.8-5C-11.4-52.2-11.9-52.3-12.4-52.4z"></path> <path class="st0" d="M-4.9-55c-0.4,0.5-0.8,1-1.3,1.3c2.8,0.1,5,2.4,5,5.2v6.7c0,0.1-0.1,0.2-0.2,0.2h-18.4c-0.1,0-0.2-0.1-0.2-0.2 v-6.7c0-2.8,2.2-5.1,5-5.2c-0.5-0.4-0.9-0.8-1.3-1.3c-3,0.7-5.2,3.4-5.2,6.5v6.7c0,0.9,0.7,1.7,1.7,1.7h18.4c0.9,0,1.7-0.7,1.7-1.7 v-6.7C0.3-51.6-1.9-54.3-4.9-55z"></path> <path class="st0" d="M9.8-65.8c0.5-0.2,1-0.4,1.5-0.5c-3-5.7-10.1-7.8-15.7-4.8c-2,1.1-3.7,2.7-4.8,4.8c0.5,0.1,1,0.3,1.5,0.5 c2.8-4.9,9-6.5,13.8-3.8C7.6-68.7,8.9-67.4,9.8-65.8z"></path> <path class="st0" d="M22-65.8h-2.7c-0.4-1.8-1.1-3.5-2.1-5l1.9-1.9c1.2-1.2,1.1-3.2-0.2-4.5L17.1-79c-1.3-1.3-3.3-1.4-4.5-0.2 l-1.9,1.9c-1.6-0.9-3.2-1.6-5-2.1v-2.7c0-1.7-1.5-3-3.3-3h-2.6c-1.8,0-3.3,1.4-3.3,3v2.7c-1.8,0.4-3.5,1.1-5,2.1l-1.9-1.9 c-1.2-1.2-3.2-1.1-4.5,0.2l-1.8,1.8c-1.3,1.3-1.4,3.3-0.2,4.5l1.9,1.9c-0.9,1.6-1.6,3.2-2.1,5H-20c-1.7,0-3,1.5-3,3.3v2.6 c0,1.8,1.4,3.3,3,3.3h2.7c0,0.1,0,0.1,0.1,0.2c0,0,0.1,0,0.1,0c-0.2-0.5-0.4-1.1-0.5-1.7H-20c-0.9,0-1.5-0.8-1.5-1.8v-2.6 c0-1,0.7-1.8,1.5-1.8h3.3c0.4,0,0.7-0.2,0.7-0.6c0.4-2,1.2-3.9,2.3-5.6c0.2-0.3,0.1-0.7-0.1-0.9l-2.3-2.3c-0.6-0.6-0.5-1.7,0.2-2.4 L-14-78c0.7-0.7,1.8-0.8,2.4-0.2l2.3,2.3c0.2,0.2,0.6,0.3,0.9,0.1c1.7-1.1,3.6-1.9,5.6-2.3c0.3-0.1,0.6-0.4,0.6-0.7v-3.3 c0-0.9,0.8-1.5,1.8-1.5h2.6c1,0,1.8,0.7,1.8,1.5v3.3c0,0.4,0.2,0.7,0.6,0.7c2,0.4,3.9,1.2,5.6,2.3c0.3,0.2,0.7,0.1,0.9-0.1l2.3-2.3 c0.6-0.6,1.7-0.5,2.4,0.2l1.8,1.8c0.7,0.7,0.8,1.8,0.2,2.4l-2.3,2.3c-0.2,0.2-0.3,0.6-0.1,0.9c1.1,1.7,1.9,3.6,2.3,5.6 c0.1,0.3,0.4,0.6,0.7,0.6H22c0.9,0,1.5,0.8,1.5,1.8v2.6c0,1-0.7,1.8-1.5,1.8h-2.3c-0.1,0.6-0.3,1.2-0.5,1.7c0,0,0.1,0,0.1,0 c0-0.1,0-0.1,0.1-0.2H22c1.7,0,3-1.5,3-3.3v-2.6C25-64.3,23.6-65.8,22-65.8z"></path> </g> <g> <path class="st0" d="M47.2,7.9H2.9C1.8,7.9,1,8.7,1,9.8v30.5c0,1,0.8,1.9,1.9,1.9h44.3c1,0,1.9-0.8,1.9-1.9V9.7 C49,8.7,48.2,7.9,47.2,7.9z M17.5,10.6h26.9c0.4,0,0.7,0.3,0.7,0.7c0,0.4-0.3,0.7-0.7,0.7H17.5c-0.4,0-0.7-0.3-0.7-0.7 C16.8,10.9,17.1,10.6,17.5,10.6z M9.6,10.4c0.5,0,0.9,0.4,0.9,0.9c0,0.5-0.4,0.9-0.9,0.9c-0.5,0-0.8-0.4-0.8-0.9 C8.7,10.8,9.1,10.4,9.6,10.4z M7.4,10.4c0.5,0,0.9,0.4,0.9,0.9c0,0.5-0.4,0.9-0.9,0.9s-0.9-0.4-0.9-0.9S6.9,10.4,7.4,10.4z M5.2,10.4c0.5,0,0.9,0.4,0.9,0.9c0,0.5-0.4,0.9-0.9,0.9s-0.9-0.4-0.9-0.9C4.3,10.8,4.7,10.4,5.2,10.4z M46.5,39.3H3.6V13.6h42.9 L46.5,39.3L46.5,39.3z"></path> <g> <g> <polygon class="st0" points="11,34.6 9.9,33.4 21.3,22 29.1,29.7 39.1,19.8 40.2,20.9 29.1,32 21.3,24.3 "></polygon> </g> <g> <circle class="st0" cx="10.4" cy="34" r="2.9"></circle> </g> <g> <circle class="st0" cx="29" cy="31" r="2.9"></circle> </g> <g> <circle class="st0" cx="21.3" cy="23.3" r="2.9"></circle> </g> <g> <circle class="st0" cx="39.6" cy="20.3" r="2.9"></circle> </g> </g> </g> </svg> 