<?xml version="1.0" encoding="utf-8"?>
<!-- Generator: Adobe Illustrator 27.0.0, SVG Export Plug-In . SVG Version: 6.00 Build 0)  -->
<svg version="1.1" id="Layer_1" xmlns="http://www.w3.org/2000/svg" xmlns:xlink="http://www.w3.org/1999/xlink" x="0px" y="0px"
	 viewBox="0 0 50 50" style="enable-background:new 0 0 50 50;" xml:space="preserve">
<style type="text/css">
	.st0{fill:#11597F;}
</style>
<path class="st0" d="M-67.3-101.3l2.4-2.4l-2.4-2.4c-0.8-0.8-0.8-2,0-2.7c0.8-0.8,2-0.8,2.7,0l2.4,2.4l2.4-2.4c0.8-0.8,2-0.8,2.8,0
	c0.8,0.8,0.8,2,0,2.8l0,0l-2.4,2.4l2.4,2.4c0.8,0.8,0.8,2,0,2.8c-0.8,0.8-2,0.8-2.8,0l-2.4-2.4l-2.4,2.4c-0.8,0.8-2,0.8-2.8,0
	C-68.1-99.3-68.1-100.6-67.3-101.3L-67.3-101.3z M-61.3-80.6c0,1.1,0.9,1.9,1.9,1.9c1.1,0,1.9-0.9,1.9-1.9c0-9.3,6.7-17.1,15.9-18.6
	l-2,2.4c-0.7,0.8-0.6,2.1,0.2,2.7c0.8,0.7,2.1,0.6,2.7-0.2l4.9-5.9c0.7-0.8,0.6-2-0.2-2.7l-0.1-0.1l-6.3-4.4c-0.8-0.7-2-0.6-2.7,0.2
	c-0.7,0.8-0.6,2,0.2,2.7c0.1,0.1,0.2,0.1,0.3,0.2l1.8,1.3C-53.4-101-61.3-91.6-61.3-80.6z M-35.3-84.3c0,4.1-3.3,7.4-7.4,7.4
	s-7.4-3.3-7.4-7.4c0-4.1,3.3-7.4,7.4-7.4C-38.7-91.7-35.4-88.4-35.3-84.3z M-39.2-84.3c0-1.9-1.6-3.5-3.5-3.5
	c-1.9,0-3.5,1.6-3.5,3.5s1.6,3.5,3.5,3.5C-40.8-80.8-39.2-82.4-39.2-84.3z M-27.5-114.5v42.6c0,1.1-0.8,1.9-1.9,2l0,0h-44.2
	c-1.1,0-1.9-0.9-1.9-1.9v-42.7c0-1.1,0.8-1.9,1.9-2l0,0h44.1C-28.4-116.5-27.5-115.6-27.5-114.5L-27.5-114.5z M-31.4-112.6h-40.2
	v38.8h40.2C-31.4-73.8-31.4-112.6-31.4-112.6z"/>
<g>
	<path class="st0" d="M37.1,26.4L37.1,26.4c-0.9-0.4-0.9-1.2-0.9-1.4c0-0.2,0.1-1.1,0.9-1.4c0.4-0.2,0.8-0.5,1-1
		c0.2-0.4,0.2-0.9,0-1.4l-1.2-2.8c-0.4-0.9-1.4-1.3-2.3-1c-0.9,0.4-1.5-0.2-1.7-0.3c-0.2-0.2-0.7-0.8-0.3-1.7c0.2-0.4,0.2-0.9,0-1.4
		c-0.2-0.4-0.5-0.8-1-1l-2.8-1.2c-0.9-0.4-2,0.1-2.3,1c-0.4,0.9-1.2,0.9-1.4,0.9c-0.2,0-1.1-0.1-1.4-0.9c-0.2-0.4-0.5-0.8-1-1
		c-0.4-0.2-0.9-0.2-1.4,0l-2.8,1.2c-0.4,0.2-0.8,0.5-1,1c-0.2,0.4-0.2,0.9,0,1.4c0.4,0.9-0.2,1.5-0.3,1.7c-0.2,0.2-0.8,0.7-1.7,0.3
		c-0.4-0.2-0.9-0.2-1.4,0c-0.4,0.2-0.8,0.5-1,1l-1.2,2.8c-0.2,0.4-0.2,0.9,0,1.4c0.2,0.4,0.5,0.8,1,1c0.9,0.4,0.9,1.2,0.9,1.4
		c0,0.2-0.1,1.1-0.9,1.4c-0.9,0.4-1.3,1.4-1,2.3l1.2,2.8c0.2,0.4,0.5,0.8,1,1c0.4,0.2,0.9,0.2,1.4,0c0.9-0.4,1.5,0.2,1.7,0.3
		c0.2,0.2,0.7,0.8,0.3,1.7c-0.4,0.9,0.1,2,1,2.3l2.8,1.2c0.2,0.1,0.5,0.1,0.7,0.1s0.5,0,0.7-0.1c0.4-0.2,0.8-0.5,1-1
		c0.4-0.9,1.2-0.9,1.4-0.9c0.2,0,1.1,0.1,1.4,0.9c0.4,0.9,1.4,1.3,2.3,1l2.8-1.2c0.9-0.4,1.3-1.4,1-2.3c-0.4-0.9,0.2-1.5,0.3-1.7
		c0.2-0.2,0.8-0.7,1.7-0.3c0.9,0.4,2-0.1,2.3-1l1.2-2.8C38.4,27.8,38,26.8,37.1,26.4z M25,31.7c-3.7,0-6.7-3-6.7-6.7
		c0-3.7,3-6.7,6.7-6.7s6.7,3,6.7,6.7C31.7,28.7,28.7,31.7,25,31.7z"/>
	<path class="st0" d="M25,1C15.8,1,7.4,6.3,3.4,14.5l-0.4-0.9c-0.2-0.5-0.8-0.8-1.4-0.6c-0.5,0.2-0.8,0.8-0.6,1.4l1.3,3.3
		c0,0,0,0,0,0c0,0,0,0.1,0,0.1c0,0,0,0.1,0.1,0.1c0,0,0,0.1,0.1,0.1c0,0,0,0,0.1,0.1c0,0,0.1,0,0.1,0.1c0,0,0.1,0,0.1,0.1
		c0,0,0.1,0,0.1,0.1c0,0,0,0,0.1,0c0,0,0,0,0,0c0,0,0,0,0,0c0,0,0,0,0.1,0c0,0,0.1,0,0.1,0c0,0,0.1,0,0.1,0c0,0,0,0,0.1,0
		c0,0,0,0,0,0c0,0,0.1,0,0.1,0c0,0,0.1,0,0.1,0c0,0,0.1,0,0.1,0c0,0,0,0,0.1,0L7.1,17c0.5-0.2,0.8-0.8,0.6-1.4
		c-0.2-0.5-0.8-0.8-1.4-0.6l-1,0.4C9,8,16.6,3.1,25,3.1c12.1,0,21.9,9.8,21.9,21.9c0,0.6,0.5,1.1,1.1,1.1S49,25.6,49,25
		C49,11.8,38.2,1,25,1z"/>
	<path class="st0" d="M48.9,35.6l-1.3-3.3c0,0,0,0,0,0c0,0,0-0.1-0.1-0.1c0,0,0-0.1-0.1-0.1c0,0,0-0.1-0.1-0.1c0,0,0-0.1-0.1-0.1
		c0,0,0,0-0.1-0.1c0,0-0.1,0-0.1-0.1c0,0-0.1,0-0.1,0c0,0-0.1,0-0.1,0c0,0,0,0,0,0c0,0,0,0-0.1,0c0,0-0.1,0-0.1,0c0,0-0.1,0-0.1,0
		c0,0-0.1,0-0.1,0c0,0-0.1,0-0.1,0c0,0-0.1,0-0.1,0c0,0-0.1,0-0.1,0c0,0,0,0-0.1,0L42.9,33c-0.5,0.2-0.8,0.8-0.6,1.4
		c0.2,0.5,0.8,0.8,1.4,0.6l1-0.4C41,42,33.4,46.9,25,46.9C12.9,46.9,3.1,37.1,3.1,25c0-0.6-0.5-1.1-1.1-1.1S1,24.4,1,25
		c0,13.2,10.8,24,24,24c9.2,0,17.6-5.3,21.6-13.5l0.4,0.9c0.2,0.4,0.6,0.7,1,0.7c0.1,0,0.3,0,0.4-0.1C48.9,36.8,49.1,36.1,48.9,35.6
		z"/>
</g>
</svg>
