<?xml version="1.0" encoding="UTF-8"?> <svg xmlns="http://www.w3.org/2000/svg" xmlns:xlink="http://www.w3.org/1999/xlink" version="1.1" id="Layer_1" x="0px" y="0px" viewBox="0 0 50 50" style="enable-background:new 0 0 50 50;" xml:space="preserve"> <style type="text/css"> .st0{fill:#11597F;} </style> <path class="st0" d="M-82.7,13.1l2.4-2.4l-2.4-2.4c-0.8-0.8-0.8-2,0-2.7c0.8-0.8,2-0.8,2.7,0l2.4,2.4l2.4-2.4c0.8-0.8,2-0.8,2.8,0 c0.8,0.8,0.8,2,0,2.8l0,0l-2.4,2.4l2.4,2.4c0.8,0.8,0.8,2,0,2.8c-0.8,0.8-2,0.8-2.8,0l-2.4-2.4l-2.4,2.4c-0.8,0.8-2,0.8-2.8,0 C-83.5,15.1-83.5,13.9-82.7,13.1L-82.7,13.1z M-76.7,33.8c0,1.1,0.9,1.9,1.9,1.9c1.1,0,1.9-0.9,1.9-1.9c0-9.3,6.7-17.1,15.9-18.6 l-2,2.4c-0.7,0.8-0.6,2.1,0.2,2.7c0.8,0.7,2.1,0.6,2.7-0.2l4.9-5.9c0.7-0.8,0.6-2-0.2-2.7c0,0-0.1-0.1-0.1-0.1L-57.7,7 c-0.8-0.7-2-0.6-2.7,0.2c-0.7,0.8-0.6,2,0.2,2.7c0.1,0.1,0.2,0.1,0.3,0.2l1.8,1.3C-68.8,13.5-76.7,22.9-76.7,33.8z M-50.8,30.1 c0,4.1-3.3,7.4-7.4,7.4c-4.1,0-7.4-3.3-7.4-7.4c0-4.1,3.3-7.4,7.4-7.4C-54.1,22.7-50.8,26-50.8,30.1z M-54.6,30.1 c0-1.9-1.6-3.5-3.5-3.5c-1.9,0-3.5,1.6-3.5,3.5c0,1.9,1.6,3.5,3.5,3.5C-56.2,33.6-54.6,32-54.6,30.1z M-42.9-0.1v42.6 c0,1.1-0.8,1.9-1.9,2c0,0,0,0,0,0H-89c-1.1,0-1.9-0.9-1.9-1.9V-0.1c0-1.1,0.8-1.9,1.9-2c0,0,0,0,0,0h44.1 C-43.8-2.1-42.9-1.2-42.9-0.1C-42.9-0.1-42.9-0.1-42.9-0.1z M-46.8,1.8H-87v38.8h40.2V1.8z"></path> <g> <path class="st0" d="M19.2,17.6c0.3,0.3,0.3,0.8,0,1.2c0,0,0,0,0,0c-0.9,0.9-1.5,2.1-1.7,3.4c-0.1,1-0.2,2,0,3 c0,0.5-0.3,0.9-0.7,0.9c0,0,0,0,0,0h-0.1c-0.4,0-0.8-0.3-0.8-0.7c-0.1-1.1-0.1-2.3,0-3.4c0.2-1.7,0.9-3.2,2.1-4.4 C18.4,17.3,18.9,17.3,19.2,17.6C19.2,17.6,19.2,17.6,19.2,17.6z M22.8,15.2l-0.7,0.2c-0.5,0.1-0.8,0.5-0.7,0.9 c0.1,0.5,0.5,0.8,0.9,0.7c0.1,0,0.1,0,0.2,0l0.6-0.1c0.5-0.1,0.7-0.5,0.7-1C23.7,15.5,23.2,15.2,22.8,15.2L22.8,15.2z M33.6,35.6 c-1,0.8-1.8,4.6-1.8,6.6v2.5c0,1.6-1.3,2.8-2.8,2.8h0h-1.9c0.1,0.1,0.2,0.3,0.2,0.5c0,0.5-0.4,0.8-0.8,0.8h-2.7 c-0.5,0-0.8-0.4-0.8-0.8c0-0.2,0.1-0.4,0.2-0.5h-1.9c-1.6,0-2.8-1.3-2.8-2.8l0,0v-2.5c0-2-0.8-5.8-1.8-6.6c-2.3-2-5.9-6.4-5-14.2 C13,10.7,24.9,10.6,25,10.6c0.1,0,12.1,0.1,13.5,10.9C39.5,29.3,35.8,33.7,33.6,35.6z M36.9,21.7c-1.2-9.3-11.4-9.5-11.8-9.5 c-0.4,0-10.6,0.1-11.8,9.5c-0.9,7,2.3,11,4.4,12.7c1.7,1.4,2.3,6.1,2.3,7.9v0.1c2.1,0,4.2-0.2,6.3-0.5c0.5-0.1,0.9,0.2,1,0.7 s-0.2,0.9-0.7,1c-2.2,0.4-4.4,0.6-6.6,0.6v0.7c0,0.6,0.5,1.2,1.2,1.2c0,0,0,0,0,0H29c0.6,0,1.2-0.5,1.2-1.2v0v-2.5 c0-1.3,0.2-2.6,0.5-3.8c-2.5,0.7-5.1,1.2-7.8,1.5h-0.1c-0.5,0-0.8-0.3-0.9-0.8s0.3-0.8,0.8-0.9c2.9-0.3,5.7-0.9,8.5-1.8 c0.2-0.8,0.7-1.6,1.3-2.2C34.5,32.7,37.8,28.7,36.9,21.7L36.9,21.7z M48.6,20.8c-1.3-0.5-2.7-0.9-4.1-1l-1.8-4.4 c0.9-1.1,1.6-2.3,2.2-3.6c0.1-0.3,0-0.6-0.1-0.8l-5.3-5.4c-0.2-0.2-0.6-0.3-0.9-0.2C37.2,5.9,36,6.7,35,7.6l-4.3-1.8 c-0.1-1.4-0.4-2.8-1-4.1c-0.1-0.3-0.4-0.5-0.8-0.5h-7.5l0,0c-0.3,0-0.6,0.2-0.8,0.5c-0.5,1.3-0.9,2.7-1,4.1l-4.4,1.8 c-1.1-0.9-2.3-1.7-3.6-2.2c-0.3-0.1-0.7-0.1-0.9,0.2l-5.3,5.3c-0.2,0.2-0.3,0.6-0.2,0.9c0.5,1.3,1.3,2.5,2.2,3.6l-1.8,4.3 c-1.4,0.1-2.8,0.4-4.1,1C1.2,20.7,1,21,1,21.3v7.5c0,0.3,0.2,0.6,0.5,0.8c1.3,0.6,2.7,0.9,4.1,1l1.7,4.3c-0.9,1.1-1.7,2.3-2.2,3.6 c-0.1,0.3-0.1,0.7,0.2,0.9l5.3,5.3c0.2,0.2,0.6,0.3,0.9,0.2c0,0,3.1-1.3,4.1-2.7c0.2-0.4,0.1-0.9-0.3-1.1c0,0,0,0,0,0 c-0.4-0.2-0.9-0.1-1.1,0.3c0,0,0,0,0,0c-0.8,0.8-1.8,1.5-2.8,1.9l-4.5-4.5c0.4-1,1.1-2,1.9-2.8c0.3-0.2,0.5-0.6,0.3-1l-2.2-5.5 c-0.2-0.4-0.6-0.6-1-0.5c-1.1,0-2.3-0.2-3.3-0.6v-6.4c1-0.4,2.2-0.6,3.3-0.6c0.4,0.1,0.8-0.1,1-0.5l2.3-5.5c0.2-0.4,0-0.8-0.3-1 c-0.8-0.8-1.5-1.7-1.9-2.8l4.5-4.5c1,0.4,2,1.1,2.8,1.9c0.2,0.3,0.6,0.5,1,0.3L20.8,7c0.4-0.2,0.6-0.6,0.5-0.9 c0-1.1,0.2-2.3,0.6-3.3h6.4c0.4,1,0.6,2.2,0.6,3.3c-0.1,0.4,0.1,0.8,0.5,1l5.5,2.3c0.4,0.2,0.8,0,1-0.3c0.8-0.8,1.7-1.5,2.8-1.9 l4.5,4.5c-0.4,1-1.1,2-1.9,2.8c-0.3,0.2-0.5,0.6-0.3,1l2.2,5.5c0.2,0.4,0.6,0.6,1,0.5c1.1,0,2.3,0.2,3.3,0.6v6.4 c-1,0.4-2.2,0.6-3.3,0.6c-0.4-0.1-0.8,0.1-1,0.5L40.8,35c-0.2,0.4,0,0.8,0.3,1c0.8,0.8,1.5,1.7,1.9,2.8l-4.5,4.5 c-1-0.4-2-1.1-2.7-1.9c-0.2-0.4-0.7-0.5-1.1-0.3c-0.4,0.2-0.5,0.7-0.3,1.1c0,0,0,0,0,0c0.9,1.5,4,2.8,4,2.8c0.3,0.1,0.6,0,0.9-0.2 l5.3-5.3c0.2-0.2,0.3-0.6,0.2-0.9c-0.5-1.3-1.3-2.5-2.2-3.6l1.8-4.3l0,0c1.4-0.1,2.8-0.4,4.1-1c0.3-0.1,0.5-0.4,0.5-0.8v-7.5 C49,21.2,48.8,20.9,48.6,20.8L48.6,20.8z"></path> </g> </svg> 