<?xml version="1.0" encoding="UTF-8"?> <svg xmlns="http://www.w3.org/2000/svg" xmlns:xlink="http://www.w3.org/1999/xlink" version="1.1" id="Layer_1" x="0px" y="0px" viewBox="0 0 50 50" style="enable-background:new 0 0 50 50;" xml:space="preserve"> <style type="text/css"> .st0{fill:#11597F;} </style> <path class="st0" d="M9.2,17.9l2.4-2.4l-2.4-2.4c-0.8-0.8-0.8-2,0-2.7c0.8-0.8,2-0.8,2.7,0l2.4,2.4l2.4-2.4c0.8-0.8,2-0.8,2.8,0 c0.8,0.8,0.8,2,0,2.8l0,0l-2.4,2.4l2.4,2.4c0.8,0.8,0.8,2,0,2.8c-0.8,0.8-2,0.8-2.8,0l-2.4-2.4l-2.4,2.4c-0.8,0.8-2,0.8-2.8,0 C8.4,19.9,8.4,18.6,9.2,17.9L9.2,17.9z M15.2,38.6c0,1.1,0.9,1.9,1.9,1.9c1.1,0,1.9-0.9,1.9-1.9c0-9.3,6.7-17.1,15.9-18.6l-2,2.4 c-0.7,0.8-0.6,2.1,0.2,2.7c0.8,0.7,2.1,0.6,2.7-0.2l4.9-5.9c0.7-0.8,0.6-2-0.2-2.7c0,0-0.1-0.1-0.1-0.1l-6.3-4.4 c-0.8-0.7-2-0.6-2.7,0.2c-0.7,0.8-0.6,2,0.2,2.7c0.1,0.1,0.2,0.1,0.3,0.2l1.8,1.3C23.1,18.2,15.2,27.6,15.2,38.6z M41.2,34.9 c0,4.1-3.3,7.4-7.4,7.4c-4.1,0-7.4-3.3-7.4-7.4c0-4.1,3.3-7.4,7.4-7.4C37.8,27.5,41.1,30.8,41.2,34.9z M37.3,34.9 c0-1.9-1.6-3.5-3.5-3.5c-1.9,0-3.5,1.6-3.5,3.5c0,1.9,1.6,3.5,3.5,3.5C35.7,38.4,37.3,36.8,37.3,34.9z M49,4.7v42.6 c0,1.1-0.8,1.9-1.9,2c0,0,0,0,0,0H2.9c-1.1,0-1.9-0.9-1.9-1.9V4.7c0-1.1,0.8-1.9,1.9-2c0,0,0,0,0,0h44.1C48.1,2.7,49,3.6,49,4.7 C49,4.7,49,4.7,49,4.7z M45.1,6.6H4.9v38.8h40.2V6.6z"></path> </svg> 